inDegrees=yes
name=ik_S53_A10_T01
DataType=double
version=3
OpenSimVersion=4.3-2021-08-27-4bc7ad9
endheader
time	pelvis_tilt	pelvis_list	pelvis_rotation	pelvis_tx	pelvis_ty	pelvis_tz	hip_flexion_r	hip_adduction_r	hip_rotation_r	knee_angle_r	knee_angle_r_beta	ankle_angle_r	subtalar_angle_r	mtp_angle_r	hip_flexion_l	hip_adduction_l	hip_rotation_l	knee_angle_l	knee_angle_l_beta	ankle_angle_l	subtalar_angle_l	mtp_angle_l	lumbar_extension	lumbar_bending	lumbar_rotation	arm_flex_r	arm_add_r	arm_rot_r	elbow_flex_r	pro_sup_r	wrist_flex_r	wrist_dev_r	arm_flex_l	arm_add_l	arm_rot_l	elbow_flex_l	pro_sup_l	wrist_flex_l	wrist_dev_l
6.159999999999957	-2.056556637622318	-2.48164177061443	30.53139310766212	0	0.9399999999999999	0	39.29889721657725	-10.17700094446154	-9.804097183159092	52.02780649592554	0.9080565259443943	0	0	0	39.29889721657725	-10.17700094446154	-9.804097183159092	52.02780649592554	0.9080565259443943	0	0	0	-2.572691011461647	-0.09114203760319911	3.050004968001732	29.40640240117051	5.628005515843872	12.86266408173511	16.63265643797161	72.05765419246956	0	0	29.14467386599853	3.010984664955983	11.64759465586558	20.02244328702803	82.75457062108407	0	0
6.179999999999956	-2.006179001022181	-2.426434909421368	30.51184755341687	0	0.9399999999999999	0	39.30251426597184	-10.1766111219583	-9.804374026853326	52.02906402576408	0.908078473980519	0	0	0	39.30251426597184	-10.1766111219583	-9.804374026853326	52.02906402576408	0.908078473980519	0	0	0	-2.502424286365529	-0.06799870996085532	3.023894125452619	29.75591768452414	5.230380996454548	13.30478179570537	18.27821617808346	71.15021983605139	0	0	29.04688837882396	2.925127897317288	11.60930258445626	21.37053942614126	82.55506937310155	0	0
6.199999999999956	-1.998582998476819	-2.414629409188323	30.58879773762248	0	0.9399999999999999	0	39.30645713375642	-10.17618647028421	-9.804675750284646	52.03043400751421	0.908102384672751	0	0	0	39.30645713375642	-10.17618647028421	-9.804675750284646	52.03043400751421	0.908102384672751	0	0	0	-2.494281861506713	-0.05380399424792871	2.929519849034731	30.35096600112123	4.715131945641724	13.99261813223185	20.74896212982759	69.47254069514197	0	0	29.90134526566963	1.994518208285987	11.7137178056697	22.89387569321033	81.90951133371152	0	0
6.219999999999955	-1.926204905926209	-2.359622263186917	30.58599669755019	0	0.9399999999999999	0	39.310760826121	-10.17572425471052	-9.805004583128309	52.03193098989913	0.9081285119442123	0	0	0	39.310760826121	-10.17572425471052	-9.805004583128309	52.03193098989913	0.9081285119442123	0	0	0	-2.405555458267391	-0.03769761519813537	2.919467231612556	30.97961961834386	4.05089706063475	14.75240612515206	23.78190600815259	67.34277318086222	0	0	29.80575292620187	1.814107574731363	11.74013511522452	25.38624076879063	82.06720374673306	0	0
6.239999999999955	-1.829939488304567	-2.277955230449322	30.7487475391198	0	0.9399999999999999	0	39.39247458244228	-10.16988191278159	-9.809861148599387	52.06969156348386	0.9087875582807075	0	0	0	39.39247458244228	-10.16988191278159	-9.809861148599387	52.06969156348386	0.9087875582807075	0	0	0	-2.293332149634489	-0.01345658866534919	2.772914543425428	31.79284717789665	3.243170993253558	15.37627900715427	27.43020920808418	65.25958491112488	0	0	31.00063792614521	0.5383491246524064	11.88339367279172	27.82560773186486	80.68128760877342	0	0
6.259999999999954	-1.697387438064401	-2.184457170476225	30.78122051049978	0	0.9399999999999999	0	39.51081274585987	-10.16138712480187	-9.816919299337451	52.12362571433638	0.9097288867923512	0	0	0	39.51081274585987	-10.16138712480187	-9.816919299337451	52.12362571433638	0.9097288867923512	0	0	0	-2.14039372785445	-0.001802380498040092	2.751516431516457	32.76516951938198	2.364316244824682	15.94047306439538	31.46987140043289	63.47692919685271	0	0	30.81362967850022	0.2507391138562157	11.90260854245665	31.40784688713111	80.03983597190779	0	0
6.279999999999954	-1.385700078621997	-1.982760108195691	31.05503997975148	0	0.9399999999999999	0	39.57694941812354	-10.1568540223478	-9.82075840888799	52.15429336126692	0.9102641382051281	0	0	0	39.57694941812354	-10.1568540223478	-9.82075840888799	52.15429336126692	0.9102641382051281	0	0	0	-1.776941729073549	0.008800603656993334	2.659272122127579	33.37963019066129	1.788689386062659	16.1202983377069	30.89490811202339	62.54665870886665	0	0	33.08882642614383	-1.09337607963304	11.40043911122713	33.26454899772403	79.70883066148397	0	0
